<svg preserveAspectRatio="none" width="100%" height="100%" overflow="visible" style="display: block;" viewBox="0 0 82 77" fill="none" xmlns="http://www.w3.org/2000/svg">
<g id="_17_ux_design">
<path id="Vector" d="M41 51.3333C26.8678 51.3333 15.375 39.8218 15.375 25.6667C15.375 11.5115 26.8678 0 41 0C55.1322 0 66.625 11.5115 66.625 25.6667C66.625 39.8218 55.1322 51.3333 41 51.3333ZM41 2.56667C28.2772 2.56667 17.9375 12.9232 17.9375 25.6667C17.9375 38.4102 28.2772 48.7667 41 48.7667C53.7228 48.7667 64.0625 38.4102 64.0625 25.6667C64.0625 12.9232 53.7228 2.56667 41 2.56667Z" fill="var(--fill-0, #3232DB)"/>
<path id="Vector_2" d="M56.375 77C42.2428 77 30.75 65.4885 30.75 51.3333C30.75 37.1782 42.2428 25.6667 56.375 25.6667C70.5072 25.6667 82 37.1782 82 51.3333C82 65.4885 70.5072 77 56.375 77ZM56.375 28.2333C43.6522 28.2333 33.3125 38.5898 33.3125 51.3333C33.3125 64.0768 43.6522 74.4333 56.375 74.4333C69.0978 74.4333 79.4375 64.0768 79.4375 51.3333C79.4375 38.5898 69.0978 28.2333 56.375 28.2333Z" fill="var(--fill-0, #3232DB)"/>
<path id="Vector_3" d="M25.625 77C11.4928 77 0 65.4885 0 51.3333C0 37.1782 11.4928 25.6667 25.625 25.6667C39.7572 25.6667 51.25 37.1782 51.25 51.3333C51.25 65.4885 39.7572 77 25.625 77ZM25.625 28.2333C12.9022 28.2333 2.5625 38.5898 2.5625 51.3333C2.5625 64.0768 12.9022 74.4333 25.625 74.4333C38.3478 74.4333 48.6875 64.0768 48.6875 51.3333C48.6875 38.5898 38.3478 28.2333 25.625 28.2333Z" fill="var(--fill-0, #3232DB)"/>
<path id="Vector_4" d="M29.4688 34.65H26.9062V37.2167H29.4688V34.65Z" fill="var(--fill-0, #3297DB)"/>
<path id="Vector_5" d="M55.0938 34.65H52.5312V37.2167H55.0938V34.65Z" fill="var(--fill-0, #3297DB)"/>
<path id="Vector_6" d="M42.2812 56.4667H39.7188V59.0333H42.2812V56.4667Z" fill="var(--fill-0, #3297DB)"/>
<path id="Vector_7" d="M56.375 71.8667V69.3C66.2662 69.3 74.3125 61.2407 74.3125 51.3333H76.875C76.875 62.6523 67.6756 71.8667 56.375 71.8667Z" fill="var(--fill-0, #E5E83D)"/>
<path id="Vector_8" d="M25.625 71.8667C14.3244 71.8667 5.125 62.6523 5.125 51.3333H7.6875C7.6875 61.2407 15.7338 69.3 25.625 69.3V71.8667Z" fill="var(--fill-0, #E5E83D)"/>
<path id="Vector_9" d="M26.65 14.8867L24.6 13.3467C28.5206 8.1235 34.4912 5.13333 41 5.13333C47.5087 5.13333 53.4794 8.1235 57.4 13.3467L55.35 14.8867C51.9291 10.318 46.6887 7.7 41 7.7C35.3112 7.7 30.0709 10.318 26.65 14.8867Z" fill="var(--fill-0, #E5E83D)"/>
</g>
</svg>
