<svg preserveAspectRatio="none" width="100%" height="100%" overflow="visible" style="display: block;" viewBox="0 0 82 74" fill="none" xmlns="http://www.w3.org/2000/svg">
<g id="Layer_1" clip-path="url(#clip0_2114_941)">
<path id="Vector" d="M36.6979 66.2811C20.6931 66.2811 7.68806 53.1445 7.68806 37.0181C7.68806 20.8918 20.6931 7.73702 36.6979 7.73702C43.3441 7.73702 49.8467 10.0744 55.002 14.2963L53.8703 15.7096C49.0383 11.7414 42.949 9.56709 36.6979 9.56709C21.6811 9.56709 9.48434 21.8883 9.48434 37.0362C9.48434 52.1841 21.699 64.4873 36.6979 64.4873C50.3855 64.4873 62.0074 54.1592 63.7139 40.4789L65.4922 40.6964C63.678 55.2826 51.3016 66.2811 36.6979 66.2811Z" fill="var(--fill-0, #E5E83D)"/>
<path id="Vector_2" d="M63.6959 33.5573C63.1032 28.7375 61.2351 24.1533 58.2892 20.2938L59.7082 19.1885C62.8337 23.3017 64.8276 28.1939 65.4743 33.3217L63.6959 33.5392V33.5573Z" fill="var(--fill-0, #E5E83D)"/>
<path id="Vector_3" d="M36.6979 59.0333C24.6629 59.0333 14.8732 49.1582 14.8732 37.0181C14.8732 24.8781 24.6629 15.0029 36.6979 15.0029C41.494 15.0029 46.0386 16.5431 49.8467 19.4603L48.7689 20.9099C45.2661 18.2463 41.0988 16.833 36.6979 16.833C25.6508 16.833 16.6694 25.8928 16.6694 37.0362C16.6694 48.1797 25.6508 57.2395 36.6979 57.2395C46.4697 57.2395 54.7864 50.191 56.439 40.4789L58.2173 40.787C56.421 51.3688 47.3678 59.0514 36.7159 59.0514L36.6979 59.0333Z" fill="var(--fill-0, #E5E83D)"/>
<path id="Vector_4" d="M56.4929 33.9922C56.0079 30.7488 54.7325 27.6322 52.7925 25.0049L54.2296 23.9177C56.3492 26.7987 57.7323 30.1871 58.2532 33.7204L56.4749 33.9922H56.4929Z" fill="var(--fill-0, #E5E83D)"/>
<path id="Vector_5" d="M36.6979 51.7674C28.6326 51.7674 22.0583 45.1538 22.0583 37C22.0583 28.8462 28.6147 22.2326 36.6979 22.2326C39.536 22.2326 42.2664 23.048 44.6375 24.5881L43.6675 26.1102C41.6017 24.7512 39.1947 24.0446 36.6979 24.0446C29.6206 24.0446 23.8545 29.8609 23.8545 37C23.8545 44.1391 29.6206 49.9554 36.6979 49.9554C42.5897 49.9554 47.7091 45.9329 49.1461 40.1709L50.8885 40.6058C49.2539 47.165 43.416 51.7674 36.6979 51.7674Z" fill="var(--fill-0, #3232DB)"/>
<path id="Vector_6" d="M49.2898 34.4995C48.9665 32.8325 48.3378 31.2742 47.4037 29.879L48.8946 28.8825C49.9544 30.4951 50.6729 32.2708 51.0502 34.1552L49.2898 34.4995Z" fill="var(--fill-0, #3232DB)"/>
<path id="Vector_7" d="M36.6979 43.8492C32.9617 43.8492 29.908 40.787 29.908 37C29.908 33.213 32.9437 30.1508 36.6979 30.1508C37.3266 30.1508 37.9373 30.2414 38.5301 30.4045L38.0451 32.144C37.614 32.0171 37.1649 31.9628 36.6979 31.9628C33.9496 31.9628 31.7043 34.2277 31.7043 37C31.7043 39.7723 33.9496 42.0372 36.6979 42.0372C38.5481 42.0372 40.2545 41.0044 41.1168 39.3374L42.6975 40.189C41.5119 42.454 39.2127 43.8492 36.6979 43.8492Z" fill="var(--fill-0, #3232DB)"/>
<path id="Vector_8" d="M79.593 37.906H36.6979C36.195 37.906 35.7998 37.5073 35.7998 37C35.7998 36.4927 36.195 36.094 36.6979 36.094H79.593C80.0959 36.094 80.4911 36.4927 80.4911 37C80.4911 37.5073 80.0959 37.906 79.593 37.906Z" fill="var(--fill-0, #3232DB)"/>
<path id="Vector_9" d="M80.7299 34.1471L78.5199 36.3765L79.79 37.6577L82.0001 35.4284L80.7299 34.1471Z" fill="var(--fill-0, #3232DB)"/>
<path id="Vector_10" d="M77.4795 32.6609L73.8087 36.3636L75.0789 37.6449L78.7496 33.9421L77.4795 32.6609Z" fill="var(--fill-0, #3232DB)"/>
<path id="Vector_11" d="M79.784 36.3607L78.5141 37.6422L80.7245 39.8712L81.9945 38.5897L79.784 36.3607Z" fill="var(--fill-0, #3232DB)"/>
<path id="Vector_12" d="M75.0603 36.3605L73.7903 37.642L77.4617 41.3441L78.7317 40.0626L75.0603 36.3605Z" fill="var(--fill-0, #3232DB)"/>
<path id="Vector_13" d="M36.6979 37.906C36.4644 37.906 36.2309 37.8154 36.0692 37.6342C35.71 37.2718 35.71 36.7101 36.0692 36.3477L66.3904 5.762C66.7496 5.39961 67.3065 5.39961 67.6657 5.762C68.025 6.12439 68.025 6.68609 67.6657 7.04848L37.3266 37.6523C37.147 37.8335 36.9135 37.9241 36.6979 37.9241V37.906Z" fill="var(--fill-0, #3232DB)"/>
<path id="Vector_14" d="M67.6118 3.56954H65.8156V6.72233H67.6118V3.56954Z" fill="var(--fill-0, #3232DB)"/>
<path id="Vector_15" d="M64.2887 4.8379H62.4924V10.0744H64.2887V4.8379Z" fill="var(--fill-0, #3232DB)"/>
<path id="Vector_16" d="M69.8392 5.81636H66.7137V7.62831H69.8392V5.81636Z" fill="var(--fill-0, #3232DB)"/>
<path id="Vector_17" d="M68.5818 9.18658H63.3906V10.9985H68.5818V9.18658Z" fill="var(--fill-0, #3232DB)"/>
<path id="Vector_18" d="M35.0813 73.9638L34.1831 73.9275L34.255 72.1156L36.0513 72.188L35.9794 74L35.0813 73.9638ZM38.2786 72.1699L40.0749 72.0431L40.2007 73.8369L39.3025 73.9094L38.4044 73.9638L38.2786 72.1699ZM30.878 73.547L29.9798 73.4021L30.2672 71.6082L32.0456 71.8981L31.7582 73.6738L30.878 73.547ZM42.2843 71.7532L44.0626 71.4089L44.386 73.2027L42.6256 73.5289L42.2843 71.7532ZM26.7286 72.6229L25.8664 72.3692L26.3514 70.6298L28.0938 71.119L27.6088 72.8766L26.7286 72.6229ZM46.2182 70.8653L47.9426 70.3399L48.4635 72.0612L46.7571 72.6048L46.2182 70.8653ZM22.7409 71.2277L21.8966 70.8834L22.5792 69.1983L24.2497 69.905L23.5671 71.572L22.7409 71.2277ZM50.0263 69.5426L51.6609 68.7997L52.3974 70.4667L50.7448 71.1915L50.0263 69.5426ZM18.9148 69.3795L18.1424 68.9447L19.0046 67.3501L20.5674 68.238L19.7051 69.8144L18.9148 69.3795ZM53.6548 67.7669L55.1996 66.8428L56.0977 68.4192L54.5529 69.3433L53.6548 67.7669ZM15.3402 67.0965L14.6037 66.571L15.6635 65.0852L16.4 65.6288L17.1365 66.1543L16.0946 67.6219L15.3582 67.0965H15.3402ZM57.0497 65.5926L58.4688 64.5054L59.5645 65.9368L58.1275 67.0421L57.0497 65.5926ZM12.053 64.4148L11.3884 63.7987L12.5919 62.4579L13.9211 63.6719L12.7176 65.0127L12.053 64.4148ZM60.1752 63.0377L61.4686 61.7875L62.708 63.0921L61.4147 64.3423L60.1752 63.0377ZM9.08916 61.3707L8.49638 60.6822L9.84359 59.4863L10.4364 60.1748L11.0291 60.8453L9.68193 62.0411L9.08916 61.3707ZM62.9954 60.1386L63.5702 59.4319L64.127 58.7434L65.5102 59.903L64.9533 60.5916L64.3785 61.2982L62.9954 60.1386ZM6.48456 58.0005L5.9816 57.2576L7.45455 56.2248L7.9575 56.9677L8.47842 57.7106L7.00548 58.7434L6.48456 58.0005ZM65.4563 56.9314L66.4442 55.4094L67.9352 56.406L66.9652 57.9099L65.4563 56.9314ZM4.2931 54.3585L3.86199 53.5612L5.46068 52.7096L6.28697 54.3041L4.70624 55.1557L4.2931 54.3585ZM67.54 53.4525L68.3483 51.8399L69.947 52.6371L69.1566 54.2679L67.54 53.4525ZM2.51479 50.4809L2.19146 49.6293L3.86199 48.977L4.18532 49.8105L4.52662 50.6621L2.85608 51.3144L2.51479 50.4809ZM69.2285 49.7561L69.5338 48.9045L69.8392 48.0529L71.5277 48.669L71.2403 49.5206L70.9529 50.3722L69.2644 49.7561H69.2285ZM1.2035 46.404L0.987952 45.5343L2.73034 45.0813L2.94589 45.951L3.17941 46.8208L1.43702 47.2919L1.2035 46.404ZM70.4499 45.8967L70.8631 44.121L72.6234 44.5377L72.2103 46.3134L70.4499 45.8967ZM0.377218 42.2365L0.251479 41.3306L2.02979 41.0769L2.28127 42.8707L0.502957 43.1244L0.377218 42.2365ZM71.2403 41.9104L71.3481 41.0044L71.4559 40.1166L73.2342 40.3159L73.1264 41.2218L73.0366 42.1097L71.2403 41.9104ZM0.0359255 37.9784V37.0725L1.81424 37.0181L1.86813 38.8301L0.071851 38.8844V37.9784H0.0359255ZM0.0898138 34.6082L0.233516 32.8144L2.02979 32.9775L1.86813 34.7713L0.0898138 34.6082ZM0.592771 30.3683L0.772399 29.4985L0.952026 28.5926L2.71238 28.9731L2.35312 30.7488L0.592771 30.3683ZM1.58072 26.2189L2.15553 24.4976L3.86199 25.0774L3.28718 26.7987L1.58072 26.2189ZM3.05367 22.2145L3.43089 21.3991L3.8081 20.5656L5.44272 21.3448L4.68828 22.9755L3.05367 22.2145ZM4.97568 18.4094L5.90975 16.8692L7.43658 17.8115L6.50252 19.3516L4.97568 18.4094ZM7.31084 14.8399L8.40657 13.4265L9.82563 14.5318L8.71194 15.9633L7.31084 14.8399ZM10.0412 11.5784L11.2986 10.2919L12.5739 11.5784L11.3165 12.8648L10.0412 11.5784ZM13.1128 8.66112L14.5139 7.51959L15.6456 8.93291L14.2445 10.0744L13.1128 8.66112ZM56.2773 7.9001L55.5408 7.37463L56.5468 5.88883L57.3012 6.39618L58.0556 6.90353L57.0497 8.40744L56.2953 7.9001H56.2773ZM16.5078 6.10627L18.0346 5.14594L18.9866 6.66797L17.4598 7.62831L16.5078 6.10627ZM52.8285 5.81636L52.0381 5.38149L52.8644 3.78697L54.4631 4.62047L53.6188 6.2331L52.8285 5.81636ZM20.1722 3.95005L20.9805 3.56954L21.7888 3.18903L22.5612 4.81978L20.9446 5.59892L20.1722 3.95005ZM49.1641 4.14936L48.3198 3.80509L48.9665 2.11998L50.637 2.77228L50.0083 4.45739L49.1641 4.14936ZM24.0521 2.24682L24.8964 1.97502L25.7586 1.66699L26.3334 3.38834L24.6269 3.96817L24.0521 2.24682ZM45.32 2.89912L44.4578 2.68168L44.8889 0.924094L46.6313 1.37708L46.2002 3.13467L45.32 2.89912ZM28.0938 1.01469L29.8541 0.634182L30.2313 2.40989L29.3511 2.60921L28.471 2.7904L28.0938 1.01469ZM41.3682 2.1381L40.4881 2.01126L40.7216 0.217434L41.6197 0.34427L42.4999 0.471107L42.2664 2.26494L41.3682 2.1381ZM32.2611 0.271792L33.1592 0.181195L34.0574 0.0905975L34.2191 1.90255L32.4407 2.06562L32.2611 0.271792ZM37.3625 1.83007H36.4644L36.5003 0L38.2966 0.036239L38.2607 1.84819H37.3625V1.83007Z" fill="var(--fill-0, #3297DB)"/>
</g>
<defs>
<clipPath id="clip0_2114_941">
<rect width="82" height="74" fill="white"/>
</clipPath>
</defs>
</svg>
