<svg preserveAspectRatio="none" width="100%" height="100%" overflow="visible" style="display: block;" viewBox="0 0 86 87" fill="none" xmlns="http://www.w3.org/2000/svg">
<g id="_46_iteration_cycles">
<path id="Vector" d="M84.6562 77.9409H63.1562V80.6284H84.6562V77.9409Z" fill="var(--fill-0, #3232DB)"/>
<path id="Vector_2" d="M79.2813 86.0034C78.9319 86.0034 78.5959 85.869 78.3272 85.6137C77.8031 85.0896 77.8031 84.243 78.3272 83.719L82.7481 79.298L78.3272 74.8771C77.8031 74.353 77.8031 73.5065 78.3272 72.9824C78.8513 72.4584 79.6978 72.4584 80.2219 72.9824L85.5969 78.3574C86.1209 78.8815 86.1209 79.728 85.5969 80.2521L80.2219 85.6271C79.9531 85.8959 79.6172 86.0168 79.2678 86.0168L79.2813 86.0034Z" fill="var(--fill-0, #3232DB)"/>
<path id="Vector_3" d="M48.375 13.4409C48.0256 13.4409 47.6897 13.3065 47.4209 13.0512L42.0459 7.67617C41.5219 7.15211 41.5219 6.30555 42.0459 5.78148L47.4209 0.393047C47.945 -0.131016 48.7916 -0.131016 49.3156 0.393047C49.8397 0.917109 49.8397 1.76367 49.3156 2.28773L44.8947 6.70867L49.3156 11.1296C49.8397 11.6537 49.8397 12.5002 49.3156 13.0243C49.0469 13.293 48.7109 13.414 48.3616 13.414L48.375 13.4409Z" fill="var(--fill-0, #3232DB)"/>
<path id="Vector_4" d="M43 80.6284H0V77.9409H43C62.2694 77.9409 77.9375 62.2727 77.9375 43.0034C77.9375 23.734 62.2694 8.06586 43 8.06586V5.37836C63.7475 5.37836 80.625 22.2559 80.625 43.0034C80.625 63.7509 63.7475 80.6284 43 80.6284Z" fill="var(--fill-0, #3232DB)"/>
<path id="Vector_5" d="M23.4887 75.1862C12.1475 68.2927 5.375 56.2662 5.375 43.0034C5.375 24.8493 18.3153 9.28867 36.1334 6.00992L36.6172 8.65711C20.0622 11.7074 8.04906 26.1527 8.04906 43.0168C8.04906 55.3255 14.3378 66.5055 24.8728 72.9018L23.4753 75.1996L23.4887 75.1862Z" fill="var(--fill-0, #3297DB)"/>
<path id="Vector_6" d="M44.3438 71.2221C28.7831 71.2221 16.125 58.564 16.125 43.0034C16.125 27.4427 28.1784 16.1284 43 16.1284C57.8216 16.1284 68.5312 27.5771 68.5312 41.6596C68.5312 55.003 57.6738 65.8471 44.3438 65.8471C31.7528 65.8471 21.5 55.5943 21.5 43.0034C21.5 31.1515 31.1481 21.5034 43 21.5034C54.1128 21.5034 63.1562 30.5468 63.1562 41.6596C63.1562 52.0334 54.7175 60.4721 44.3438 60.4721C34.7091 60.4721 26.875 52.638 26.875 43.0034C26.875 34.1077 34.1044 26.8784 43 26.8784C51.1566 26.8784 57.7812 33.503 57.7812 41.6596C57.7812 49.0637 51.7478 55.0971 44.3438 55.0971C37.6787 55.0971 32.25 49.6684 32.25 43.0034C32.25 37.0774 37.0741 32.2534 43 32.2534C48.1869 32.2534 52.4062 36.4727 52.4062 41.6596C52.4062 46.1074 48.7916 49.7221 44.3438 49.7221C40.635 49.7221 37.625 46.7121 37.625 43.0034C37.625 40.0337 40.0303 37.6284 43 37.6284C45.2172 37.6284 47.0312 39.4424 47.0312 41.6596H44.3438C44.3438 40.9205 43.7391 40.3159 43 40.3159C41.5219 40.3159 40.3125 41.5252 40.3125 43.0034C40.3125 45.2205 42.1266 47.0346 44.3438 47.0346C47.3134 47.0346 49.7188 44.6293 49.7188 41.6596C49.7188 37.9509 46.7087 34.9409 43 34.9409C38.5522 34.9409 34.9375 38.5555 34.9375 43.0034C34.9375 48.1902 39.1569 52.4096 44.3438 52.4096C50.2697 52.4096 55.0938 47.5855 55.0938 41.6596C55.0938 34.9946 49.665 29.5659 43 29.5659C35.5959 29.5659 29.5625 35.5993 29.5625 43.0034C29.5625 51.1599 36.1872 57.7846 44.3438 57.7846C53.2394 57.7846 60.4688 50.5552 60.4688 41.6596C60.4688 32.0249 52.6347 24.1909 43 24.1909C32.6263 24.1909 24.1875 32.6296 24.1875 43.0034C24.1875 54.1162 33.2309 63.1596 44.3438 63.1596C56.1956 63.1596 65.8438 53.5115 65.8438 41.6596C65.8438 29.0687 55.5909 18.8159 43 18.8159C29.67 18.8159 18.8125 29.6599 18.8125 43.0034C18.8125 57.0859 30.2613 68.5346 44.3438 68.5346V71.2221Z" fill="var(--fill-0, #E5E83D)"/>
</g>
</svg>
