<svg preserveAspectRatio="none" width="100%" height="100%" overflow="visible" style="display: block;" viewBox="0 0 82 72" fill="none" xmlns="http://www.w3.org/2000/svg">
<g id="_04_timetable_events">
<path id="Vector" d="M80.7188 72H1.28125C0.576562 72 0 71.4214 0 70.7143V11.5714C0 10.8643 0.576562 10.2857 1.28125 10.2857H80.7188C81.4234 10.2857 82 10.8643 82 11.5714V70.7143C82 71.4214 81.4234 72 80.7188 72ZM2.5625 69.4286H79.4375V12.8571H2.5625V69.4286Z" fill="var(--fill-0, #3232DB)"/>
<path id="Vector_2" d="M32.0312 30.8571H24.3438C23.6391 30.8571 23.0625 30.2786 23.0625 29.5714V21.8571C23.0625 21.15 23.6391 20.5714 24.3438 20.5714H32.0312C32.7359 20.5714 33.3125 21.15 33.3125 21.8571V29.5714C33.3125 30.2786 32.7359 30.8571 32.0312 30.8571ZM25.625 28.2857H30.75V23.1429H25.625V28.2857Z" fill="var(--fill-0, #3297DB)"/>
<path id="Vector_3" d="M44.8438 30.8571H37.1562C36.4516 30.8571 35.875 30.2786 35.875 29.5714V21.8571C35.875 21.15 36.4516 20.5714 37.1562 20.5714H44.8438C45.5484 20.5714 46.125 21.15 46.125 21.8571V29.5714C46.125 30.2786 45.5484 30.8571 44.8438 30.8571ZM38.4375 28.2857H43.5625V23.1429H38.4375V28.2857Z" fill="var(--fill-0, #3232DB)"/>
<path id="Vector_4" d="M57.6562 30.8571H49.9688C49.2641 30.8571 48.6875 30.2786 48.6875 29.5714V21.8571C48.6875 21.15 49.2641 20.5714 49.9688 20.5714H57.6562C58.3609 20.5714 58.9375 21.15 58.9375 21.8571V29.5714C58.9375 30.2786 58.3609 30.8571 57.6562 30.8571ZM51.25 28.2857H56.375V23.1429H51.25V28.2857Z" fill="var(--fill-0, #3232DB)"/>
<path id="Vector_5" d="M70.4688 30.8571H62.7812C62.0766 30.8571 61.5 30.2786 61.5 29.5714V21.8571C61.5 21.15 62.0766 20.5714 62.7812 20.5714H70.4688C71.1734 20.5714 71.75 21.15 71.75 21.8571V29.5714C71.75 30.2786 71.1734 30.8571 70.4688 30.8571ZM64.0625 28.2857H69.1875V23.1429H64.0625V28.2857Z" fill="var(--fill-0, #3232DB)"/>
<path id="Vector_6" d="M19.2188 43.7143H11.5312C10.8266 43.7143 10.25 43.1357 10.25 42.4286V34.7143C10.25 34.0071 10.8266 33.4286 11.5312 33.4286H19.2188C19.9234 33.4286 20.5 34.0071 20.5 34.7143V42.4286C20.5 43.1357 19.9234 43.7143 19.2188 43.7143ZM12.8125 41.1429H17.9375V36H12.8125V41.1429Z" fill="var(--fill-0, #3232DB)"/>
<path id="Vector_7" d="M32.0312 43.7143H24.3438C23.6391 43.7143 23.0625 43.1357 23.0625 42.4286V34.7143C23.0625 34.0071 23.6391 33.4286 24.3438 33.4286H32.0312C32.7359 33.4286 33.3125 34.0071 33.3125 34.7143V42.4286C33.3125 43.1357 32.7359 43.7143 32.0312 43.7143ZM25.625 41.1429H30.75V36H25.625V41.1429Z" fill="var(--fill-0, #3297DB)"/>
<path id="Vector_8" d="M44.8438 43.7143H37.1562C36.4516 43.7143 35.875 43.1357 35.875 42.4286V34.7143C35.875 34.0071 36.4516 33.4286 37.1562 33.4286H44.8438C45.5484 33.4286 46.125 34.0071 46.125 34.7143V42.4286C46.125 43.1357 45.5484 43.7143 44.8438 43.7143ZM38.4375 41.1429H43.5625V36H38.4375V41.1429Z" fill="var(--fill-0, #3297DB)"/>
<path id="Vector_9" d="M70.4688 43.7143H62.7812C62.0766 43.7143 61.5 43.1357 61.5 42.4286V34.7143C61.5 34.0071 62.0766 33.4286 62.7812 33.4286H70.4688C71.1734 33.4286 71.75 34.0071 71.75 34.7143V42.4286C71.75 43.1357 71.1734 43.7143 70.4688 43.7143ZM64.0625 41.1429H69.1875V36H64.0625V41.1429Z" fill="var(--fill-0, #3232DB)"/>
<path id="Vector_10" d="M19.2188 56.5714H11.5312C10.8266 56.5714 10.25 55.9929 10.25 55.2857V47.5714C10.25 46.8643 10.8266 46.2857 11.5312 46.2857H19.2188C19.9234 46.2857 20.5 46.8643 20.5 47.5714V55.2857C20.5 55.9929 19.9234 56.5714 19.2188 56.5714ZM12.8125 54H17.9375V48.8571H12.8125V54Z" fill="var(--fill-0, #3232DB)"/>
<path id="Vector_11" d="M44.8438 56.5714H37.1562C36.4516 56.5714 35.875 55.9929 35.875 55.2857V47.5714C35.875 46.8643 36.4516 46.2857 37.1562 46.2857H44.8438C45.5484 46.2857 46.125 46.8643 46.125 47.5714V55.2857C46.125 55.9929 45.5484 56.5714 44.8438 56.5714ZM38.4375 54H43.5625V48.8571H38.4375V54Z" fill="var(--fill-0, #3232DB)"/>
<path id="Vector_12" d="M57.6562 56.5714H49.9688C49.2641 56.5714 48.6875 55.9929 48.6875 55.2857V47.5714C48.6875 46.8643 49.2641 46.2857 49.9688 46.2857H57.6562C58.3609 46.2857 58.9375 46.8643 58.9375 47.5714V55.2857C58.9375 55.9929 58.3609 56.5714 57.6562 56.5714ZM51.25 54H56.375V48.8571H51.25V54Z" fill="var(--fill-0, #3297DB)"/>
<path id="Vector_13" d="M70.4688 56.5714H62.7812C62.0766 56.5714 61.5 55.9929 61.5 55.2857V47.5714C61.5 46.8643 62.0766 46.2857 62.7812 46.2857H70.4688C71.1734 46.2857 71.75 46.8643 71.75 47.5714V55.2857C71.75 55.9929 71.1734 56.5714 70.4688 56.5714ZM64.0625 54H69.1875V48.8571H64.0625V54Z" fill="var(--fill-0, #3232DB)"/>
<path id="Vector_14" d="M82 11.5714H79.4375V2.57143H2.5625V11.5714H0V1.28571C0 0.578571 0.576562 0 1.28125 0H80.7188C81.4234 0 82 0.578571 82 1.28571V11.5714Z" fill="var(--fill-0, #3232DB)"/>
<path id="Vector_15" d="M46.125 5.14286H43.5625V7.71429H46.125V5.14286Z" fill="var(--fill-0, #3297DB)"/>
<path id="Vector_16" d="M51.25 5.14286H48.6875V7.71429H51.25V5.14286Z" fill="var(--fill-0, #3297DB)"/>
<path id="Vector_17" d="M56.375 5.14286H53.8125V7.71429H56.375V5.14286Z" fill="var(--fill-0, #3297DB)"/>
<path id="Vector_18" d="M28.1875 5.14286H25.625V7.71429H28.1875V5.14286Z" fill="var(--fill-0, #3297DB)"/>
<path id="Vector_19" d="M33.3125 5.14286H30.75V7.71429H33.3125V5.14286Z" fill="var(--fill-0, #3297DB)"/>
<path id="Vector_20" d="M38.4375 5.14286H35.875V7.71429H38.4375V5.14286Z" fill="var(--fill-0, #3297DB)"/>
<path id="Vector_21" d="M18.3161 20.9373L10.6244 28.6558L12.4363 30.4741L20.1281 22.7555L18.3161 20.9373Z" fill="var(--fill-0, #E5E83D)"/>
<path id="Vector_22" d="M12.4363 20.9464L10.6244 22.7646L18.3161 30.4832L20.1281 28.6649L12.4363 20.9464Z" fill="var(--fill-0, #E5E83D)"/>
<path id="Vector_23" d="M31.1327 46.6529L23.441 54.3715L25.2529 56.1898L32.9447 48.4712L31.1327 46.6529Z" fill="var(--fill-0, #3232DB)"/>
<path id="Vector_24" d="M25.2529 46.662L23.441 48.4803L31.1327 56.1989L32.9447 54.3806L25.2529 46.662Z" fill="var(--fill-0, #3232DB)"/>
<path id="Vector_25" d="M56.7591 33.8045L49.0673 41.5231L50.8793 43.3414L58.5711 35.6228L56.7591 33.8045Z" fill="var(--fill-0, #E5E83D)"/>
<path id="Vector_26" d="M50.8793 33.8136L49.0673 35.6319L56.7591 43.3505L58.5711 41.5322L50.8793 33.8136Z" fill="var(--fill-0, #E5E83D)"/>
<path id="Vector_27" d="M80.7188 64.2857H1.28125V66.8571H80.7188V64.2857Z" fill="var(--fill-0, #3232DB)"/>
</g>
</svg>
