<svg preserveAspectRatio="none" width="100%" height="100%" overflow="visible" style="display: block;" viewBox="0 0 82 82" fill="none" xmlns="http://www.w3.org/2000/svg">
<g id="_18_scale_modification">
<path id="Vector" d="M41 82C18.3988 82 0 63.6141 0 41C0 18.3859 18.3988 0 41 0C63.6012 0 82 18.3859 82 41C82 63.6141 63.6012 82 41 82ZM41 2.5625C19.8081 2.5625 2.5625 19.8081 2.5625 41C2.5625 62.1919 19.8081 79.4375 41 79.4375C62.1919 79.4375 79.4375 62.1919 79.4375 41C79.4375 19.8081 62.1919 2.5625 41 2.5625Z" fill="var(--fill-0, #E5E83D)"/>
<path id="Vector_2" d="M41 66.625C40.7694 66.625 40.5259 66.5609 40.3209 66.4328L23.6647 56.0291L25.0228 53.8509L39.7188 63.0375V42.9988L21.7812 31.7878V47.4191H19.2188V29.4816C19.2188 29.0203 19.475 28.5847 19.885 28.3669C20.295 28.1362 20.7947 28.1491 21.1791 28.4053L41.6791 41.2178C42.0506 41.4484 42.2812 41.8584 42.2812 42.3069V65.3694C42.2812 65.8306 42.025 66.2662 41.615 66.4841C41.4228 66.5866 41.205 66.6506 41 66.6506V66.625Z" fill="var(--fill-0, #3232DB)"/>
<path id="Vector_3" d="M41 66.625C40.7822 66.625 40.5772 66.5737 40.385 66.4584C39.975 66.2278 39.7188 65.805 39.7188 65.3438V42.2813C39.7188 41.8456 39.9494 41.4228 40.3209 41.1922L60.8209 28.3797C61.2181 28.1363 61.7178 28.1234 62.115 28.3413C62.525 28.5719 62.7812 28.9947 62.7812 29.4559V47.3934H60.2188V31.7622L42.2812 42.9731V63.0119L56.9772 53.8253L58.3353 56.0034L41.6791 66.4072C41.4741 66.5353 41.2306 66.5994 41 66.5994V66.625Z" fill="var(--fill-0, #3232DB)"/>
<path id="Vector_4" d="M41 43.5625C40.7694 43.5625 40.5259 43.4984 40.3209 43.3703L19.8209 30.5578C19.4494 30.3272 19.2188 29.9172 19.2188 29.4687C19.2188 29.0203 19.4494 28.6103 19.8209 28.3797L36.4772 17.9759L37.8353 20.1541L22.9216 29.4816L41 40.7822L59.0784 29.4816L44.1647 20.1541L45.5228 17.9759L62.1791 28.3797C62.5506 28.6103 62.7812 29.0203 62.7812 29.4687C62.7812 29.9172 62.5506 30.3272 62.1791 30.5578L41.6791 43.3703C41.4741 43.4984 41.2306 43.5625 41 43.5625Z" fill="var(--fill-0, #3232DB)"/>
<path id="Vector_5" d="M35.3272 43.687L10.9846 55.2093L12.0809 57.5254L36.4235 46.0031L35.3272 43.687Z" fill="var(--fill-0, #3297DB)"/>
<path id="Vector_6" d="M20.0003 61.3975L11.0316 57.5537C10.4422 57.2975 10.1219 56.6441 10.3012 56.0291L12.8637 47.0603L15.3238 47.765L13.0687 55.6447L20.9997 59.04L19.9875 61.3975H20.0003Z" fill="var(--fill-0, #3297DB)"/>
<path id="Vector_7" d="M46.6725 43.69L45.5754 46.0057L69.914 57.5365L71.0111 55.2208L46.6725 43.69Z" fill="var(--fill-0, #3297DB)"/>
<path id="Vector_8" d="M61.9997 61.3975L60.9875 59.04L68.9184 55.6447L66.6634 47.765L69.1234 47.0603L71.6859 56.0291C71.8653 56.6441 71.545 57.3103 70.9556 57.5537L61.9869 61.3975H61.9997Z" fill="var(--fill-0, #3297DB)"/>
<path id="Vector_9" d="M42.2812 7.6875H39.7188V35.875H42.2812V7.6875Z" fill="var(--fill-0, #3297DB)"/>
<path id="Vector_10" d="M47.8675 15.0803L41 9.35313L34.1325 15.0803L32.4925 13.1072L40.18 6.70094C40.6541 6.30375 41.3459 6.30375 41.82 6.70094L49.5075 13.1072L47.8675 15.0803Z" fill="var(--fill-0, #3297DB)"/>
<path id="Vector_11" d="M41 56.375C32.5181 56.375 25.625 49.4819 25.625 41C25.625 32.5181 32.5181 25.625 41 25.625C49.4819 25.625 56.375 32.5181 56.375 41C56.375 49.4819 49.4819 56.375 41 56.375ZM41 28.1875C33.9403 28.1875 28.1875 33.9403 28.1875 41C28.1875 48.0597 33.9403 53.8125 41 53.8125C48.0597 53.8125 53.8125 48.0597 53.8125 41C53.8125 33.9403 48.0597 28.1875 41 28.1875Z" fill="var(--fill-0, #3232DB)"/>
</g>
</svg>
